<svg width="18" height="18" viewBox="0 0 18 18" fill="none" xmlns="http://www.w3.org/2000/svg">
<path d="M3.89558 17.4H0.287411V5.78317H3.89558V17.4ZM2.08955 4.19853C0.936027 4.19853 0 3.24308 0 2.08955C0 1.53537 0.220149 1.00388 0.612016 0.612016C1.00388 0.220149 1.53537 0 2.08955 0C2.64374 0 3.17522 0.220149 3.56709 0.612016C3.95896 1.00388 4.17911 1.53537 4.17911 2.08955C4.17911 3.24308 3.24308 4.19853 2.08955 4.19853ZM17.3961 17.4H13.7957V11.745C13.7957 10.3973 13.7685 8.66893 11.9198 8.66893C10.0438 8.66893 9.75643 10.1332 9.75643 11.6479V17.4H6.15214V5.78317H9.61272V7.36781H9.66321C10.1448 6.45509 11.3217 5.49187 13.0772 5.49187C16.7281 5.49187 17.4 7.89603 17.4 11.0187V17.4H17.3961Z" fill="#757185"/>
</svg>
