<svg width="355" height="625" viewBox="0 0 355 625" fill="none" xmlns="http://www.w3.org/2000/svg">
<path d="M72.5333 10.4C67.6 19.6 66.4 21.0667 60.1333 24C51.2 28.4 45.6 33.7334 41.8667 42C38.2667 49.7334 37.6 61.4667 40.6667 66.6667C43.3333 71.4667 43.2 72.5333 38.6667 75.2C36.4 76.4 32.1333 80.9333 29.0667 85.0667C18.8 98.8 14.6667 103.2 10.4 104.667C5.73333 106.133 0 113.467 0 117.867C0 121.333 3.86667 129.067 8.66667 135.467C11.4667 139.2 11.8667 140.533 10.6667 142C8.13333 145.067 10.1333 148 14.4 148C18 148 18.4 148.533 19.2 153.6C20.8 163.2 22.6667 212.267 21.8667 219.333C21.3333 222.933 19.6 228.8 17.8667 232.133C8.66667 250.667 11.7333 293.2 24.2667 318C33.8667 337.333 38.5333 341.333 51.0667 341.333C65.7333 341.333 69.4667 334.133 70.2667 304C71.2 273.2 68.8 264.667 48 226.667C42.5333 216.533 33.4667 182.667 31.2 163.333C28.5333 140 28.6667 137.867 33.3333 132.4C37.0667 128.267 37.3333 127.333 36.5333 120.667L35.6 113.467L40.1333 112.8C42.6667 112.4 49.2 111.867 54.6667 111.6C60.2667 111.333 66.5333 110.133 68.8 108.933L72.9333 106.8L74.5333 112C76.4 118.267 82.8 124 88 124C94.6667 124 97.8667 126.133 103.2 134C106.8 139.067 111.6 143.733 118 148C134.933 159.333 142.533 170.133 153.2 196.933L157.6 207.867L155.867 220.267C155.067 227.067 154.267 239.2 154.133 247.333C154.133 265.067 157.2 276.667 165.333 288.533C171.6 297.6 171.733 299.2 168.667 323.6C167.6 332.533 166.8 347.2 166.8 356.267C167.067 379.6 163.6 395.867 153.733 417.2C142.933 440.533 142.4 443.333 141.467 473.067C140.8 496.933 140.4 500.4 138.267 501.467C136.533 502.533 136 504.533 136 509.867C136 513.733 135.333 518.667 134.667 520.8C132.933 525.733 118.267 536.667 111.867 537.867C109.2 538.267 106 539.867 104.8 541.2C102.533 543.6 102.533 544.267 104.8 552C107.467 561.467 115.467 574.8 120.667 578.133C122.533 579.333 125.6 583.2 127.333 586.533C131.2 594.267 149.2 614.933 155.733 619.333C164.933 625.333 176.667 625.733 183.067 620.267C186.533 617.2 186 610.267 182 606.533C176.8 601.6 173.333 595.467 170.667 586C169.333 581.2 168.4 577.333 168.667 577.333C170.267 577.333 192.8 595.2 200.933 602.933C211.467 613.067 220.933 618.133 232.8 620C243.2 621.733 247.333 619.733 247.333 613.333C247.333 609.467 246.667 608.4 243.333 606.933C231.067 601.6 228.4 598.533 226.8 587.333C223.6 566.267 223.6 568 227.467 568C230.4 568 230.8 567.733 229.333 566C228.4 564.933 226.667 564 225.333 564C224 564 222.267 563.2 221.467 562.133C220.267 560.667 220.933 559.467 224.933 556.267C228.667 553.2 229.6 551.733 228.533 550.667C227.467 549.6 226 550 223.2 552.667C221.067 554.667 220.133 555.733 221.2 555.2C222.4 554.667 222.8 554.8 222.133 555.733C221.067 557.467 215.333 555.733 215.333 553.867C215.333 553.2 216.133 546 217.067 537.733C218.4 526.933 218.533 522.133 217.467 520.133C215.067 515.733 215.733 511.2 222 492.933C225.333 483.067 229.467 467.067 231.467 456.667C234 442.267 236.4 434.4 241.467 422.267C249.6 402.933 250.667 397.467 250.667 376.667C250.667 360.533 250.667 360.267 253.867 359.467C256.933 358.667 256.933 358.667 257.2 336.4C257.333 324 257.6 310.933 257.6 307.333C257.6 303.6 257.067 290.133 256.267 277.333C254.8 252.667 253.6 247.067 245.867 228.4C240.267 214.8 239.467 201.467 244.133 196.533C247.067 193.467 247.867 188.933 246.133 185.2C245.467 183.467 246.133 182.8 248.933 182C250.933 181.6 258.4 177.867 265.333 174C272.267 170 283.467 164.933 290 162.533C299.733 159.067 303.2 157.067 308.533 151.733C314.533 145.733 315.867 145.2 324 144C328.933 143.333 334 142.4 335.2 141.867C338.4 140.667 337.867 137.333 334.4 137.2H331.333L334.4 136C336.133 135.2 341.2 134.267 345.6 133.733C354.267 132.667 357.2 130 351.467 128.533C349.6 128.133 348 126.933 348 126C348 125.067 347.067 123.867 345.867 123.467C342 122 329.867 122.667 322.667 124.8C314 127.333 310 126 307.333 119.6C305.333 114.667 300.667 110 296.4 108.8C292.4 107.6 291.733 109.467 294.667 114C298.133 119.2 297.067 127.6 291.733 138.133L287.6 146.133L278.8 147.733C274 148.533 265.733 150.4 260.667 151.867C255.467 153.2 247.067 154.667 242 154.8L232.8 155.333L231.2 149.333C230.267 146 228.667 139.067 227.467 134C226.267 128.8 223.333 121.6 221.067 118C218.8 114.267 212.933 104.933 208.133 97.0667C203.333 89.2 197.067 80.1333 194.4 76.8C188.667 70.1334 178.667 64.6667 168.267 62.6667C164.267 62 159.467 60.1334 157.333 58.6667C153.2 55.7334 145.067 55.2 139.2 57.3334C136.133 58.5334 135.067 58.2667 132.533 55.8667L129.467 52.9334L132 49.3334C134.8 45.4667 135.333 41.7334 133.6 39.2C132 36.8 123.6 32 120.667 32C116.933 31.8667 113.333 29.6 105.867 22.8C99.7333 17.2 99.3333 17.0667 92.9333 17.8667C87.2 18.6667 85.8667 18.4 83.2 15.8667C80.9333 13.7334 80.2667 12 80.8 9.73335C81.7333 6.26669 80.5333 2.09241e-05 78.9333 2.09241e-05C78.4 2.09241e-05 75.6 4.66669 72.5333 10.4ZM33.0667 212.4C38.2667 226.267 38.4 225.333 32 223.733L26.4 222.267L27.2 216.267C27.6 212.933 28 208.533 28 206.267C28 200.933 29.3333 202.4 33.0667 212.4ZM37.7333 234.8C40.4 235.467 43.8667 237.333 45.3333 238.933C49.6 243.6 56.6667 262.4 60.6667 279.733C63.7333 293.733 64.2667 298.4 63.7333 309.733C63.0667 324.8 60.4 332.667 55.2 334.933C42.1333 340.933 22.1333 306.667 19.3333 273.733C18.2667 262.267 20.2667 245.333 23.2 238C25.4667 232.8 28.4 232.133 37.7333 234.8ZM202 418.267C200.8 424.667 197.467 437.067 194.533 445.733L189.333 461.467L190.133 478.4C190.8 490.667 190.4 500.533 188.8 514C186 536.8 185.6 538.667 183.067 538.667C182 538.667 177.867 541.733 173.867 545.467L166.667 552.4V548.533C166.667 546.4 165.733 543.2 164.533 541.6C162.533 538.667 162.667 537.333 165.2 523.333C167.467 511.467 167.733 507.467 166.533 505.6C165.333 503.6 166.4 499.733 172.4 484.533C180.8 463.2 183.467 455.067 184.667 446.667C185.2 443.333 187.2 437.067 188.933 432.667C193.067 422.667 202.8 404.933 203.6 405.867C203.867 406.133 203.2 411.733 202 418.267Z" fill="#6151B3"/>
</svg>
