<svg width="51" height="50" viewBox="0 0 51 50" fill="none" xmlns="http://www.w3.org/2000/svg">
<path d="M40.375 41.6667H10.625L6.375 16.6667L18.0625 26.0417L25.5 14.5833L32.9375 26.0417L44.625 16.6667L40.375 41.6667Z" fill="url(#paint0_linear_4_25)"/>
<path d="M44.625 16.6667L40.375 41.6667H10.625L6.375 16.6667M44.625 16.6667L32.9375 26.0417L25.5 14.5833M44.625 16.6667C46.3854 16.6667 47.8125 15.2676 47.8125 13.5417C47.8125 11.8158 46.3854 10.4167 44.625 10.4167C42.8646 10.4167 41.4375 11.8158 41.4375 13.5417C41.4375 15.2676 42.8646 16.6667 44.625 16.6667ZM25.5 14.5833L18.0625 26.0417L6.375 16.6667M25.5 14.5833C27.2604 14.5833 28.6875 13.1842 28.6875 11.4583C28.6875 9.73244 27.2604 8.33333 25.5 8.33333C23.7396 8.33333 22.3125 9.73244 22.3125 11.4583C22.3125 13.1842 23.7396 14.5833 25.5 14.5833ZM6.375 16.6667C8.13541 16.6667 9.5625 15.2676 9.5625 13.5417C9.5625 11.8158 8.13541 10.4167 6.375 10.4167C4.61459 10.4167 3.1875 11.8158 3.1875 13.5417C3.1875 15.2676 4.61459 16.6667 6.375 16.6667Z" stroke="url(#paint1_linear_4_25)" stroke-width="2" stroke-linecap="round" stroke-linejoin="round"/>
<defs>
<linearGradient id="paint0_linear_4_25" x1="25.5" y1="14.5833" x2="25.5" y2="41.6667" gradientUnits="userSpaceOnUse">
<stop stop-color="#A06BE1"/>
<stop offset="1" stop-color="#3B215B"/>
</linearGradient>
<linearGradient id="paint1_linear_4_25" x1="25.5" y1="8.33333" x2="25.5" y2="41.6667" gradientUnits="userSpaceOnUse">
<stop stop-color="#A06BE1"/>
<stop offset="1" stop-color="#3B215B"/>
</linearGradient>
</defs>
</svg>
