<svg width="216" height="59" viewBox="0 0 216 59" fill="none" xmlns="http://www.w3.org/2000/svg">
<g filter="url(#filter0_d_4_25)">
<path d="M65.336 50C64.312 50 63.432 49.632 62.696 48.896C61.992 48.16 61.64 47.28 61.64 46.256V21.056C61.64 19.328 62.216 18.048 63.368 17.216C64.52 16.384 66.296 15.968 68.696 15.968V43.904H81.08C82.68 43.904 83.896 44.432 84.728 45.488C85.592 46.512 86.024 48.016 86.024 50H65.336ZM98.4545 50.432C96.4705 50.432 94.6305 50.032 92.9345 49.232C91.2705 48.432 89.9425 47.344 88.9505 45.968C87.9585 44.592 87.4625 43.056 87.4625 41.36V35.216C87.4625 33.424 87.9585 31.792 88.9505 30.32C89.9745 28.816 91.3345 27.648 93.0305 26.816C94.7265 25.984 96.5505 25.568 98.5025 25.568C100.423 25.568 102.183 25.968 103.783 26.768C105.415 27.536 106.695 28.64 107.623 30.08C108.551 31.488 109.015 33.088 109.015 34.88V37.472C109.015 38.24 108.727 38.896 108.151 39.44C107.575 39.952 106.839 40.208 105.943 40.208H93.8465V40.88C93.8465 42.16 94.2305 43.216 94.9985 44.048C95.7985 44.848 96.9665 45.248 98.5025 45.248C100.007 45.248 101.111 44.928 101.815 44.288C102.519 43.616 102.871 42.784 102.871 41.792C103.511 41.728 103.991 41.696 104.311 41.696C105.623 41.696 106.631 41.968 107.335 42.512C108.039 43.056 108.391 43.856 108.391 44.912C108.391 45.776 107.959 46.64 107.095 47.504C106.231 48.368 105.031 49.072 103.495 49.616C101.991 50.16 100.311 50.432 98.4545 50.432ZM103.063 35.552V34.88C103.063 33.6 102.631 32.592 101.767 31.856C100.935 31.088 99.8305 30.704 98.4545 30.704C97.0785 30.704 95.9585 31.088 95.0945 31.856C94.2625 32.592 93.8465 33.6 93.8465 34.88V35.552H103.063ZM115.695 30.896H111.903C111.903 29.232 112.127 28.016 112.575 27.248C113.055 26.448 113.775 26.048 114.735 26.048H115.695V24.368C115.695 21.808 116.447 19.776 117.951 18.272C119.487 16.736 121.535 15.968 124.095 15.968C125.791 15.968 127.199 16.352 128.319 17.12C129.439 17.856 129.999 18.8 129.999 19.952C129.999 20.464 129.887 20.96 129.663 21.44C129.471 21.888 129.199 22.272 128.847 22.592C127.631 21.952 126.431 21.632 125.247 21.632C124.223 21.632 123.471 21.872 122.991 22.352C122.511 22.8 122.271 23.552 122.271 24.608V26.048H139.119V46.592C139.119 47.904 138.591 48.88 137.535 49.52C136.479 50.128 134.815 50.432 132.543 50.432V30.896H122.271V46.592C122.271 47.936 121.743 48.912 120.687 49.52C119.663 50.128 117.999 50.432 115.695 50.432V30.896ZM135.855 23.744C134.639 23.744 133.615 23.376 132.783 22.64C131.983 21.904 131.583 20.976 131.583 19.856C131.583 18.736 131.983 17.808 132.783 17.072C133.615 16.336 134.639 15.968 135.855 15.968C137.071 15.968 138.079 16.336 138.879 17.072C139.711 17.808 140.127 18.736 140.127 19.856C140.127 20.976 139.711 21.904 138.879 22.64C138.079 23.376 137.071 23.744 135.855 23.744ZM167.63 48.464C166.926 49.776 165.79 50.432 164.222 50.432C163.55 50.432 162.958 50.288 162.446 50C161.934 49.68 161.454 49.2 161.006 48.56L155.102 40.112L151.934 43.088V46.592C151.934 47.968 151.39 48.96 150.302 49.568C149.214 50.144 147.582 50.432 145.406 50.432V20.96C145.406 17.632 147.614 15.968 152.03 15.968V35.696L162.83 25.568C164.654 26.976 165.566 28.096 165.566 28.928C165.566 29.44 165.422 29.904 165.134 30.32C164.878 30.704 164.446 31.184 163.838 31.76L158.894 36.464L167.63 48.464ZM177.983 50.432C176.415 50.432 174.943 50.128 173.567 49.52C172.223 48.88 171.135 47.968 170.303 46.784C169.471 45.568 169.055 44.112 169.055 42.416C169.055 40.72 169.503 39.264 170.399 38.048C171.295 36.8 172.479 35.856 173.951 35.216C175.455 34.576 177.087 34.256 178.847 34.256C180.319 34.256 181.615 34.48 182.735 34.928C183.887 35.376 184.959 36.032 185.951 36.896L186.191 36.608C185.519 36 184.991 35.568 184.607 35.312V34.688C184.607 33.472 184.159 32.512 183.263 31.808C182.399 31.072 181.167 30.704 179.567 30.704C178.159 30.704 176.911 30.96 175.823 31.472C174.735 31.984 173.855 32.736 173.183 33.728C172.415 33.536 171.759 33.184 171.215 32.672C170.703 32.128 170.447 31.536 170.447 30.896C170.447 29.904 170.879 29.008 171.743 28.208C172.607 27.376 173.775 26.736 175.247 26.288C176.751 25.808 178.399 25.568 180.191 25.568C183.679 25.568 186.367 26.368 188.255 27.968C190.143 29.568 191.087 31.744 191.087 34.496V46.16C191.087 47.664 190.591 48.752 189.599 49.424C188.639 50.096 187.103 50.432 184.991 50.432V48.56C185.471 48.112 185.855 47.712 186.143 47.36L185.903 47.12C184.847 48.208 183.743 49.04 182.591 49.616C181.439 50.16 179.903 50.432 177.983 50.432ZM179.807 45.728C181.343 45.728 182.543 45.44 183.407 44.864C184.271 44.288 184.703 43.456 184.703 42.368C184.703 41.312 184.255 40.48 183.359 39.872C182.495 39.264 181.311 38.96 179.807 38.96C178.463 38.96 177.391 39.264 176.591 39.872C175.823 40.48 175.439 41.312 175.439 42.368C175.439 43.456 175.823 44.288 176.591 44.864C177.391 45.44 178.463 45.728 179.807 45.728Z" fill="white"/>
</g>
<path d="M40.375 50.6667H10.625L6.375 25.6667L18.0625 35.0417L25.5 23.5833L32.9375 35.0417L44.625 25.6667L40.375 50.6667Z" fill="url(#paint0_linear_4_25)"/>
<path d="M44.625 25.6667L40.375 50.6667H10.625L6.375 25.6667M44.625 25.6667L32.9375 35.0417L25.5 23.5833M44.625 25.6667C46.3854 25.6667 47.8125 24.2676 47.8125 22.5417C47.8125 20.8158 46.3854 19.4167 44.625 19.4167C42.8646 19.4167 41.4375 20.8158 41.4375 22.5417C41.4375 24.2676 42.8646 25.6667 44.625 25.6667ZM25.5 23.5833L18.0625 35.0417L6.375 25.6667M25.5 23.5833C27.2604 23.5833 28.6875 22.1842 28.6875 20.4583C28.6875 18.7324 27.2604 17.3333 25.5 17.3333C23.7396 17.3333 22.3125 18.7324 22.3125 20.4583C22.3125 22.1842 23.7396 23.5833 25.5 23.5833ZM6.375 25.6667C8.13541 25.6667 9.5625 24.2676 9.5625 22.5417C9.5625 20.8158 8.13541 19.4167 6.375 19.4167C4.61459 19.4167 3.1875 20.8158 3.1875 22.5417C3.1875 24.2676 4.61459 25.6667 6.375 25.6667Z" stroke="url(#paint1_linear_4_25)" stroke-width="2" stroke-linecap="round" stroke-linejoin="round"/>
<defs>
<filter id="filter0_d_4_25" x="57.64" y="15.968" width="137.447" height="42.464" filterUnits="userSpaceOnUse" color-interpolation-filters="sRGB">
<feFlood flood-opacity="0" result="BackgroundImageFix"/>
<feColorMatrix in="SourceAlpha" type="matrix" values="0 0 0 0 0 0 0 0 0 0 0 0 0 0 0 0 0 0 127 0" result="hardAlpha"/>
<feOffset dy="4"/>
<feGaussianBlur stdDeviation="2"/>
<feComposite in2="hardAlpha" operator="out"/>
<feColorMatrix type="matrix" values="0 0 0 0 0 0 0 0 0 0 0 0 0 0 0 0 0 0 0.25 0"/>
<feBlend mode="normal" in2="BackgroundImageFix" result="effect1_dropShadow_4_25"/>
<feBlend mode="normal" in="SourceGraphic" in2="effect1_dropShadow_4_25" result="shape"/>
</filter>
<linearGradient id="paint0_linear_4_25" x1="25.5" y1="23.5833" x2="25.5" y2="50.6667" gradientUnits="userSpaceOnUse">
<stop stop-color="#A06BE1"/>
<stop offset="1" stop-color="#3B215B"/>
</linearGradient>
<linearGradient id="paint1_linear_4_25" x1="25.5" y1="17.3333" x2="25.5" y2="50.6667" gradientUnits="userSpaceOnUse">
<stop stop-color="#A06BE1"/>
<stop offset="1" stop-color="#3B215B"/>
</linearGradient>
</defs>
</svg>
