<svg width="192" height="192" viewBox="0 0 192 192" fill="none" xmlns="http://www.w3.org/2000/svg">
<path d="M152 160H40L24 64L68 100L96 56L124 100L168 64L152 160Z" fill="white"/>
<path d="M168 64L152 160H40L24 64M168 64L124 100L96 56M168 64C174.627 64 180 58.6274 180 52C180 45.3726 174.627 40 168 40C161.373 40 156 45.3726 156 52C156 58.6274 161.373 64 168 64ZM96 56L68 100L24 64M96 56C102.627 56 108 50.6274 108 44C108 37.3726 102.627 32 96 32C89.3726 32 84 37.3726 84 44C84 50.6274 89.3726 56 96 56ZM24 64C30.6274 64 36 58.6274 36 52C36 45.3726 30.6274 40 24 40C17.3726 40 12 45.3726 12 52C12 58.6274 17.3726 64 24 64Z" stroke="white" stroke-width="2" stroke-linecap="round" stroke-linejoin="round"/>
</svg>
